<?xml version="1.0" encoding="UTF-8"?>
<svg id="Layer_2" data-name="Layer 2" xmlns="http://www.w3.org/2000/svg" viewBox="0 0 121.89 62.78">
  <defs>
    <style>
      .cls-1 {
        fill: #ff7bac;
      }
    </style>
  </defs>
  <g id="Layer_1-2" data-name="Layer 1">
    <g>
      <g>
        <path class="cls-1" d="m103.42,21.66s0,.02-.01.03c-.28,1.2-.57,2.15-.77,2.75-.01.05-.03.09-.04.13-.02.05-.03.09-.04.13h-.13s-.04-.02-.05-.03c-.05-.04-.1-.07-.15-.11l-4.34-15.99L95.57.02c10.13,5.06,9.15,16.01,7.85,21.64Z"/>
        <path class="cls-1" d="m102.63,24.69s-.04.01-.07.01h-.13s-.04-.02-.05-.03c-.05-.04-.1-.07-.15-.11-16.01-11.58-6.86-24.56-6.86-24.56l2.52,8.57,4.68,15.92h0s.03.08.03.08l.03.12Z"/>
      </g>
      <g>
        <path class="cls-1" d="m121.7,7.56l-6.56,5.97-12.25,11.15c-.08.01-.17.01-.26.01-.02.01-.04.01-.07.01h-.03c0-.06.03-.12.04-.2h0c.15-.6.42-1.59.84-2.81.01-.01.01-.02.01-.03,1.91-5.43,6.97-15.29,18.28-14.1Z"/>
        <path class="cls-1" d="m102.89,24.68c-.08.01-.17.01-.26.01-.02.01-.04.01-.07.01h-.13s-.04-.02-.05-.03l.19-.17.07-.06,12.5-10.91,6.75-5.89s.73,15.87-19,17.04Z"/>
      </g>
      <path d="m0,27.38v5h5.75v30h5.5v-17.5h-2.75v-5.94h2.75v-6.56h5.75v-5H0Z"/>
      <path d="m32.3,26.98c-5.4,0-8.35,3.2-8.35,8.8v11.71h2.65v6.01h-2.65v.48c0,5.6,2.95,8.8,8.35,8.8s8.35-3.2,8.35-8.8v-18.2c0-5.6-2.95-8.8-8.35-8.8Zm2.85,27.35c0,2.5-1.1,3.45-2.85,3.45s-2.85-.95-2.85-3.45v-18.9c0-2.5,1.1-3.45,2.85-3.45s2.85.95,2.85,3.45v18.9Z"/>
      <path d="m64.7,36.88v-1.1c0-5.6-2.75-8.8-8.1-8.8s-8.1,3.2-8.1,8.8c0,4,1.45,6.9,6.05,10.95,3.6,3.15,4.7,5.05,4.7,7.6s-1.1,3.4-2.85,3.4-2.85-.9-2.85-3.4v-2.5h-5.2v2.15c0,5.6,2.8,8.8,8.2,8.8,4.19,0,6.81-1.92,7.77-5.4h-1.48v-5.71h1.72c-.53-2.91-2.19-5.41-5.86-8.64-3.6-3.15-4.7-5.05-4.7-7.6s1-3.45,2.75-3.45,2.75.95,2.75,3.45v1.45h5.2Z"/>
      <path d="m84.65,27.38v15h-6.25v-3.49h-1.65v-8.71h1.65v-2.8h-5.5v35h5.5v-15h6.25v15h5.6V27.38h-5.6Z"/>
      <path d="m99.25,27.38v8.86h2.64v14.96h-2.64v11.18h5.5V27.38h-5.5Z"/>
    </g>
  </g>
</svg>