<?xml version="1.0" encoding="UTF-8"?>
<svg id="Layer_2" data-name="Layer 2" xmlns="http://www.w3.org/2000/svg" viewBox="0 0 104.75 35.8">
  <g id="Layer_1-2" data-name="Layer 1">
    <path d="m0,.4v5h5.75v30h5.5v-17.5h-2.75v-5.94h2.75v-6.56h5.75V.4H0Z"/>
    <path d="m32.3,0c-5.4,0-8.35,3.2-8.35,8.8v11.71h2.65v6.01h-2.65v.48c0,5.6,2.95,8.8,8.35,8.8s8.35-3.2,8.35-8.8V8.8c0-5.6-2.95-8.8-8.35-8.8Zm2.85,27.35c0,2.5-1.1,3.45-2.85,3.45s-2.85-.95-2.85-3.45V8.45c0-2.5,1.1-3.45,2.85-3.45s2.85.95,2.85,3.45v18.9Z"/>
    <path d="m64.7,9.9v-1.1c0-5.6-2.75-8.8-8.1-8.8s-8.1,3.2-8.1,8.8c0,4,1.45,6.9,6.05,10.95,3.6,3.15,4.7,5.05,4.7,7.6s-1.1,3.4-2.85,3.4-2.85-.9-2.85-3.4v-2.5h-5.2v2.15c0,5.6,2.8,8.8,8.2,8.8,4.19,0,6.81-1.92,7.77-5.4h-1.48v-5.71h1.72c-.53-2.91-2.19-5.41-5.86-8.64-3.6-3.15-4.7-5.05-4.7-7.6s1-3.45,2.75-3.45,2.75.95,2.75,3.45v1.45h5.2Z"/>
    <path d="m84.65.4v15h-6.25v-3.49h-1.65V3.2h1.65V.4h-5.5v35h5.5v-15h6.25v15h5.6V.4h-5.6Z"/>
    <path d="m99.25.4v8.86h2.64v14.96h-2.64v11.18h5.5V.4h-5.5Z"/>
  </g>
</svg>